<svg xmlns="http://www.w3.org/2000/svg" width="32" height="32" viewBox="0 0 384 61" fill="none">
    <path fill-rule="evenodd" clip-rule="evenodd" d="M13.1838 0H61.2657V47.8734C61.2657 55.1537 55.2831 61 48.0819 61H23.1547C21.936 61 20.7173 60.8897 19.6095 60.6691L50.8516 21.179L41.3239 11.5823H31.4638L40.216 20.9584L7.53358 55.0434C6.97964 54.4919 6.4257 53.9403 5.87176 53.3888L37.8895 21.179L25.9244 9.37613H51.8487V35.1881L46.4201 29.2315L41.6562 35.4087L56.945 50.6311V4.4123H10.5248L27.5862 21.3996L0.110788 40.5931C0 39.7107 0 38.9385 0 38.0561V13.1266C0 5.9566 5.98254 0 13.1838 0Z" fill="#FE0027"/>
</svg>