<svg width="1081" height="1081" viewBox="0 0 1081 1081" fill="none" xmlns="http://www.w3.org/2000/svg">
<g clip-path="url(#clip0_125_37)">
<rect width="1080" height="1080" transform="translate(0.598633 0.739502)" fill="#FF9D92"/>
<g opacity="0.8" filter="url(#filter0_f_125_37)">
<ellipse cx="1208.86" cy="519.644" rx="510.504" ry="639.029" fill="#FCFF6C" fill-opacity="0.2"/>
</g>
<path d="M-26 560.497C512.691 774.247 330.538 426.964 223.764 327.078C150.301 258.355 60.9388 249.348 65.5145 345.438C70.0902 441.528 399.567 720.792 587.172 638.429C716.273 581.75 722.859 334.005 543.36 121.443C442.694 2.23366 332.733 85.9304 387.641 218.627C442.55 351.323 756.45 574.224 989.812 409.498C1223.17 244.772 1002.97 -11.0835 893.722 15.9854C786.041 42.6668 820.51 154.566 893.722 218.627C966.933 282.687 1194.32 441.528 1340.75 409.498" stroke="white" stroke-width="100" stroke-linejoin="round"/>
<path d="M948.65 649.534H895.434C893.713 649.534 892.85 647.453 894.067 646.236L931.698 608.605L927.045 603.952L889.414 641.584C888.197 642.801 886.117 641.937 886.117 640.217V587H879.537V640.217C879.537 641.937 877.456 642.801 876.239 641.584L838.605 603.952L833.952 608.605L871.584 646.236C872.801 647.453 871.937 649.534 870.217 649.534H817V656.114H870.217C871.937 656.114 872.801 658.194 871.584 659.411L833.952 697.043L838.605 701.695L876.236 664.064C877.453 662.847 879.534 663.71 879.534 665.431V718.647H886.114V665.431C886.114 663.71 888.194 662.847 889.411 664.064L927.042 701.695L931.695 697.043L894.064 659.411C892.847 658.194 893.71 656.114 895.431 656.114H948.647V649.534H948.65Z" fill="white" stroke="white" stroke-width="9"/>
</g>
<defs>
<filter id="filter0_f_125_37" x="504.354" y="-313.384" width="1409.01" height="1666.06" filterUnits="userSpaceOnUse" color-interpolation-filters="sRGB">
<feFlood flood-opacity="0" result="BackgroundImageFix"/>
<feBlend mode="normal" in="SourceGraphic" in2="BackgroundImageFix" result="shape"/>
<feGaussianBlur stdDeviation="97" result="effect1_foregroundBlur_125_37"/>
</filter>
<clipPath id="clip0_125_37">
<rect width="1080" height="1080" fill="white" transform="translate(0.598633 0.739502)"/>
</clipPath>
</defs>
</svg>
