<svg width="1080" height="1080" viewBox="0 0 1080 1080" fill="none" xmlns="http://www.w3.org/2000/svg">
<g clip-path="url(#clip0_125_56)">
<rect width="1080" height="1080" fill="#F1F1F1"/>
<path d="M-40 1146C265.895 1086.7 330.9 642.466 285.424 503.019C239.948 363.573 96.5013 437.808 114.921 565.126C133.341 692.444 270.431 883.754 586.426 883.754C923.377 883.754 969.739 546.625 838.664 484.544C743.157 439.308 717.566 563.541 782.661 612.648C1001.82 777.98 1133.5 430.339 1157.89 203" stroke="#366AF3" stroke-width="85.24"/>
<path d="M1051.37 577.328L1061.89 546.351C1062.94 543.266 1061.62 539.888 1058.9 538.751C1056.18 537.612 1053.07 539.138 1051.9 542.182L1044.26 562.121L1044.33 561.534L1046.61 541.582C1046.98 538.329 1044.96 535.429 1042.05 535.057C1039.15 534.684 1036.43 536.984 1035.94 540.224L1030.53 575.61L1051.37 577.326L1051.37 577.328Z" stroke="#618AFF" stroke-width="1.16422" stroke-linecap="round" stroke-linejoin="round"/>
<path d="M1028.36 576.68C1027.76 580.237 1027.35 583.494 1027.09 586.454C1026.26 595.943 1030.77 604.712 1038.04 609.217M1056 563.649C1059.37 558.433 1067.28 561.894 1066.22 568.496C1066.22 568.496 1068 566.41 1071.48 567.895C1078.53 572.33 1075.61 585.947 1071.48 597.458C1069.08 604.133 1062.4 611.54 1056 611.54" stroke="white" stroke-width="1.20745" stroke-linejoin="round"/>
<path d="M1049.47 598.797C1051.16 594.496 1054.33 581.597 1039.1 579.523" stroke="#618AFF" stroke-width="1.0901" stroke-miterlimit="10"/>
<path d="M1056.19 563.391L1051.5 576.417C1050.48 579.428 1052.04 583.437 1054.83 584.542C1057.61 585.649 1060.7 584.105 1061.73 581.094L1066.28 568.498" stroke="#618AFF" stroke-width="1.0901" stroke-miterlimit="10"/>
<path d="M1064.22 574.221L1060.95 583.326C1060.23 585.43 1061.32 588.233 1063.27 589.004C1065.22 589.778 1067.38 588.698 1068.09 586.594L1071.28 577.791" stroke="#618AFF" stroke-width="1.0901" stroke-miterlimit="10"/>
<path d="M1039.1 579.526L1050.74 581.383C1053.92 581.891 1056.88 579.516 1057.35 576.082C1057.82 572.649 1055.62 569.452 1052.44 568.944L1041.42 567.187C1035.06 566.173 1029.15 570.92 1028.21 577.791" stroke="#618AFF" stroke-width="1.0901" stroke-miterlimit="10"/>
<path d="M572.153 145.389L543.768 190.404C542.85 191.859 540.63 191.48 540.249 189.801L528.49 137.898L522.073 139.352L533.832 191.255C534.213 192.934 532.373 194.233 530.917 193.315L485.903 164.93L482.393 170.496L527.407 198.881C528.863 199.799 528.483 202.019 526.805 202.399L474.9 214.161L476.354 220.578L528.257 208.819C529.936 208.439 531.235 210.279 530.317 211.734L501.932 256.749L507.498 260.258L535.883 215.244C536.801 213.788 539.021 214.168 539.401 215.847L551.161 267.75L557.578 266.296L545.819 214.393C545.438 212.714 547.278 211.415 548.734 212.332L593.748 240.718L597.258 235.152L552.243 206.767C550.788 205.849 551.167 203.628 552.846 203.248L604.749 191.489L603.295 185.072L551.392 196.831C549.714 197.211 548.414 195.371 549.332 193.916L577.717 148.901L572.151 145.392L572.153 145.389Z" fill="#366AF3" stroke="#366AF3" stroke-width="9"/>
</g>
<defs>
<clipPath id="clip0_125_56">
<rect width="1080" height="1080" fill="white"/>
</clipPath>
</defs>
</svg>
